<svg id="Слой_1" data-name="Слой 1" xmlns="http://www.w3.org/2000/svg" viewBox="0 0 116.22 141.73"><defs><style>.cls-1{fill:#333}.cls-2{fill:red}</style></defs><path class="cls-1" d="M58.06 29.12v14.15l-8.65-2.18-5.44-1.35-14.21-3.53v11.38l28.17 7.06v15.9l-28.17-7.06v43.68l-14.16-3.53h-.39A18.26 18.26 0 011.42 86V.91l14.12 3.53L29.69 8l14.19 3.53h.42a18.14 18.14 0 0113.76 17.59z"/><path class="cls-2" d="M114.8.84h-.03v-.1l.03.1zm-.03 0V85.4a18.67 18.67 0 01-14.15 18.17l-14.09 3.53-14.15 3.57-14.15 3.53V85.86l8.67-2.18 5.48-1.35 14.15-3.73V63.46l-28.47 7.09h-.13v-15.9h.13l28.47-7.09v-25a18.71 18.71 0 0114.15-18.19z"/><path class="cls-1" d="M57.94 125.09v15.9l54.3-29.5-54.3 13.6z"/><path class="cls-2" d="M3.37 111.49l54.43 29.5h.14v-15.9h-.14l-54.43-13.6z"/></svg>